<?xml version="1.0" encoding="utf-8"?>
<svg viewBox="142.509 142.491 315 315" width="315" height="315" xmlns="http://www.w3.org/2000/svg">
  <path d="M 457.509 299.991 C 457.509 342.945 439.468 383.271 411.378 411.36 C 383.289 439.45 342.963 457.491 300.009 457.491 C 257.055 457.491 216.729 439.45 188.64 411.36 C 160.55 383.271 142.509 342.945 142.509 299.991 C 142.509 257.037 160.55 216.711 188.64 188.622 C 216.729 160.532 257.055 142.491 300.009 142.491 C 342.963 142.491 383.289 160.532 411.378 188.622 C 439.468 216.711 457.509 257.037 457.509 299.991 Z M 400.772 199.228 C 374.572 173.029 339.898 157.491 300.009 157.491 C 260.12 157.491 225.446 173.029 199.246 199.228 C 173.047 225.428 157.509 260.102 157.509 299.991 C 157.509 339.88 173.047 374.554 199.246 400.754 C 225.446 426.953 260.12 442.491 300.009 442.491 C 339.898 442.491 374.572 426.953 400.772 400.754 C 426.971 374.554 442.509 339.88 442.509 299.991 C 442.509 260.102 426.971 225.428 400.772 199.228 Z M 399.328 235.778 L 335.122 299.984 L 349.669 314.53 L 356.923 307.275 C 357.332 306.867 357.887 306.633 358.471 306.633 C 359.055 306.633 359.609 306.867 360.018 307.275 L 369.55 316.807 C 370.265 317.523 370.397 318.617 369.886 319.479 L 355.799 343.155 L 384.366 371.722 L 386.716 369.372 C 387.563 368.511 388.95 368.511 389.811 369.372 L 399.358 378.904 C 399.766 379.313 400 379.867 400 380.451 C 400 381.035 399.766 381.59 399.358 381.999 L 382.016 399.34 C 381.607 399.749 381.053 399.982 380.469 399.982 C 379.885 399.982 379.33 399.749 378.922 399.34 L 369.39 389.808 C 368.528 388.961 368.528 387.575 369.39 386.713 L 371.74 384.363 L 343.173 355.797 L 319.496 369.883 C 319.146 370.087 318.752 370.189 318.372 370.189 C 317.803 370.189 317.248 369.97 316.825 369.547 L 307.278 360.015 C 306.87 359.606 306.636 359.052 306.636 358.468 C 306.636 357.884 306.87 357.329 307.278 356.921 L 314.533 349.666 L 299.987 335.12 L 285.455 349.651 L 292.71 356.906 C 293.571 357.753 293.571 359.139 292.71 360.001 L 283.178 369.533 C 282.755 369.956 282.2 370.175 281.631 370.175 C 281.237 370.175 280.857 370.073 280.507 369.868 L 256.83 355.782 L 228.263 384.349 L 230.614 386.699 C 231.475 387.546 231.475 388.932 230.614 389.794 L 221.082 399.326 C 220.673 399.734 220.118 399.968 219.534 399.968 C 218.95 399.968 218.396 399.734 217.987 399.326 L 200.646 381.984 C 199.785 381.137 199.785 379.751 200.646 378.889 L 210.178 369.357 C 211.025 368.496 212.412 368.496 213.273 369.357 L 215.622 371.708 L 244.189 343.141 L 230.103 319.464 C 229.592 318.603 229.723 317.508 230.438 316.793 L 239.97 307.261 C 240.788 306.443 242.248 306.443 243.065 307.261 L 250.32 314.516 L 264.851 299.984 L 200.661 235.793 C 200.238 235.369 200.004 234.771 200.019 234.172 L 201.026 203.139 C 201.07 201.985 201.989 201.066 203.143 201.022 L 234.175 200.015 C 234.788 200 235.372 200.234 235.796 200.657 L 299.987 264.848 L 364.193 200.643 C 364.616 200.205 365.215 199.986 365.813 200 L 396.847 201.007 C 398 201.051 398.92 201.971 398.964 203.124 L 399.985 234.158 C 400.015 234.756 399.781 235.355 399.328 235.778 Z" style="fill: rgb(52, 105, 139);"/>
</svg>