<?xml version="1.0" encoding="utf-8"?>
<svg viewBox="542.491 142.481 315 315.001" width="315" height="315.001" xmlns="http://www.w3.org/2000/svg">
  <g transform="matrix(1.26217, 0, 0, 1.26217, 401.187109, -320.767766)" style="">
    <path class="st0" d="M 299.34 428.45 C 299.16 427.83 298.62 427.4 297.98 427.36 C 276.64 426.23 256.81 421.44 237.35 412.71 C 236.96 412.54 236.51 412.54 236.12 412.71 C 216.66 421.44 196.83 426.24 175.49 427.36 C 174.85 427.39 174.3 427.83 174.13 428.45 C 164.52 462.18 165.36 491.61 176.63 515.94 C 187.3 538.98 207.31 557.47 236.1 570.9 C 236.3 570.99 236.52 571.04 236.73 571.04 C 236.94 571.04 237.16 570.99 237.36 570.9 C 266.15 557.47 286.16 538.98 296.83 515.94 C 308.12 491.61 308.96 462.17 299.34 428.45 Z M 361.523 491.812 C 361.523 525.843 347.23 557.793 324.974 580.048 C 302.72 602.303 270.77 616.597 236.738 616.597 C 202.706 616.597 170.757 602.303 148.502 580.048 C 126.247 557.793 111.953 525.843 111.953 491.812 C 111.953 457.78 126.247 425.83 148.502 403.575 C 170.757 381.32 202.706 367.026 236.738 367.026 C 270.77 367.026 302.72 381.32 324.974 403.575 C 347.23 425.83 361.523 457.78 361.523 491.812 Z M 316.571 411.978 C 295.813 391.221 268.342 378.911 236.738 378.911 C 205.135 378.911 177.663 391.221 156.905 411.978 C 136.148 432.736 123.837 460.208 123.837 491.812 C 123.837 523.415 136.148 550.887 156.905 571.645 C 177.663 592.402 205.135 604.712 236.738 604.712 C 268.342 604.712 295.813 592.402 316.571 571.645 C 337.328 550.887 349.639 523.415 349.639 491.812 C 349.639 460.208 337.328 432.736 316.571 411.978 Z" style="fill: rgb(52, 105, 139);"/>
  </g>
</svg>